<svg xmlns="http://www.w3.org/2000/svg" viewBox="0 0 60 60"><path d="M30 5C16.484 5 6 9.569 6 13.5S16.484 22 30 22s24-4.569 24-8.5S43.516 5 30 5zm0 15c-14.198 0-22-4.882-22-6.5S15.802 7 30 7s22 4.882 22 6.5S44.198 20 30 20z"/><path d="M57.233 32H56v-5h1a1 1 0 1 0 0-2h-1v-6.782c1.288-1.45 2-3.039 2-4.718C58 6.49 45.701 1 30 1S2 6.49 2 13.5c0 2.708 1.842 5.187 5 7.213V23H6a1 1 0 1 0 0 2h1v4.766l-1.746 3.539-4.412.707a1 1 0 0 0-.498 1.742l3.213 2.795-.699 4.073a1 1 0 0 0 1.451 1.054L8 41.736l3.691 1.94a.997.997 0 0 0 1.053-.076 1 1 0 0 0 .398-.978l-.699-4.073 3.213-2.795a.999.999 0 0 0-.498-1.742l-4.412-.707L9 29.766V25h1a1 1 0 1 0 0-2H9v-1.152c3.185 1.602 7.298 2.822 12 3.512v12.711h-1a1 1 0 1 0 0 2h1v5.009c-3.387.488-6 3.401-6 6.92 0 3.859 3.14 7 7 7s7-3.141 7-7c0-3.519-2.613-6.432-6-6.92v-5.009h1a1 1 0 1 0 0-2h-1v-12.45A63.72 63.72 0 0 0 30 26c3.164 0 6.185-.226 9-.64V30h-1a1 1 0 1 0 0 2h1v4.974l-1.742 3.53-4.127.601a1 1 0 0 0-.554 1.705l2.986 2.911-.705 4.109a1 1 0 0 0 1.451 1.054L40 48.944l3.691 1.94a.997.997 0 0 0 1.053-.075 1 1 0 0 0 .398-.978l-.705-4.109 2.986-2.911a.997.997 0 0 0 .253-1.024 1.002 1.002 0 0 0-.807-.681l-4.127-.601L41 36.974V32h1a1 1 0 1 0 0-2h-1v-4.968c5.46-1.014 9.992-2.77 13-5.002V25h-1a1 1 0 1 0 0 2h1v5h-1.232A2.77 2.77 0 0 0 50 34.768v4.465A2.77 2.77 0 0 0 52.768 42h4.465A2.77 2.77 0 0 0 60 39.232v-4.465A2.77 2.77 0 0 0 57.233 32zM9.92 35.198l2.811.45-2.024 1.761c-.264.229-.388.58-.33.924l.452 2.631-2.363-1.242a.999.999 0 0 0-.931-.001l-2.363 1.242.452-2.631a1.001 1.001 0 0 0-.33-.924l-2.024-1.76 2.811-.45a1 1 0 0 0 .739-.545L8 32.26l1.181 2.394c.144.29.419.494.739.544zM27 52c0 2.757-2.243 5-5 5s-5-2.243-5-5 2.243-5 5-5 5 2.243 5 5zm14.934-9.592l2.642.385-1.912 1.863a.998.998 0 0 0-.288.885l.452 2.631-2.363-1.242a.992.992 0 0 0-.93-.001l-2.363 1.242.452-2.631a.999.999 0 0 0-.288-.885l-1.912-1.863 2.642-.385a1 1 0 0 0 .753-.547L40 39.468l1.181 2.394a1 1 0 0 0 .753.546zM30 24C15.907 24 4 19.191 4 13.5S15.907 3 30 3s26 4.809 26 10.5S44.093 24 30 24zm28 15.232a.769.769 0 0 1-.767.768h-4.465a.769.769 0 0 1-.768-.768v-4.465c0-.422.344-.767.768-.767h4.464c.424 0 .768.345.768.768v4.464z"/></svg>