<svg xmlns="http://www.w3.org/2000/svg" viewBox="0 0 512 512"><path d="M423.608 69.426C378.838 24.656 319.313 0 256 0S133.162 24.656 88.392 69.426 18.966 173.72 18.966 237.034c0 63.211 24.562 122.47 69.246 167.257V512l62.613-62.613C183.43 465.55 219.663 474.068 256 474.068c63.314 0 122.838-24.656 167.608-69.426s69.426-104.295 69.426-167.608-24.656-122.838-69.426-167.608zM256 458.088c-36.226 0-70.876-8.589-102.985-25.528l-5.212-2.75-43.612 43.612v-75.836l-2.412-2.352c-43.099-42.023-66.834-98.207-66.834-158.2C34.946 115.144 134.11 15.98 256 15.98s221.054 99.164 221.054 221.054S377.89 458.088 256 458.088z"/><path d="M213.387 90.552c-19.477 0-38.434 3.791-56.345 11.27l-17.668 7.377 17.671 7.37c48.787 20.348 80.311 67.633 80.311 120.464s-31.524 100.117-80.311 120.464l-17.671 7.37 17.668 7.377c17.91 7.479 36.868 11.27 56.345 11.27 80.771 0 146.482-65.711 146.482-146.482s-65.711-146.48-146.482-146.48zm0 276.984c-11.063 0-21.935-1.372-32.498-4.093 44.566-26.033 72.447-73.768 72.447-126.409s-27.882-100.377-72.447-126.409c10.562-2.721 21.434-4.093 32.498-4.093 71.959 0 130.502 58.543 130.502 130.502s-58.543 130.502-130.502 130.502zM74.892 234.371h21.306v15.98H74.892z"/><path d="M149.465 181.105h21.306v15.98h-21.306zm21.306 74.572h21.306v15.98h-21.306zM96.199 330.25h21.306v15.98H96.199zm0-202.411h21.306v15.98H96.199zm127.838-85.226h21.306v15.98h-21.306zm85.226 31.959h21.306v15.98h-21.306zm117.185 117.186h21.306v15.98h-21.306zm-53.266-63.919h21.306v15.98h-21.306zm-21.306 213.064h21.306v15.98h-21.306zm-42.613 53.266h21.306v15.98h-21.306zm-63.919 21.306h21.306v15.98h-21.306zm-63.92-10.653h21.306v15.98h-21.306zM405.142 298.29h21.306v15.98h-21.306zm-21.307-53.266h21.306v15.98h-21.306z"/></svg>