<svg xmlns="http://www.w3.org/2000/svg" viewBox="0 0 512 512"><path d="M243.672 256.102a8.657 8.657 0 0 0-12.143-1.533c-8.283 6.427-24.111 10.58-40.32 10.58-16.607 0-32.22-4.076-39.776-10.385a8.655 8.655 0 0 0-11.094 13.286c10.805 9.022 29.822 14.408 50.869 14.408 20.419 0 39.459-5.313 50.931-14.213a8.654 8.654 0 0 0 1.533-12.143zm150.13 0a8.657 8.657 0 0 0-12.143-1.533c-8.283 6.427-24.11 10.58-40.32 10.58-16.606 0-32.219-4.076-39.775-10.385a8.655 8.655 0 0 0-11.094 13.286c10.805 9.022 29.822 14.408 50.868 14.408 20.419.001 39.459-5.313 50.931-14.213 3.776-2.93 4.463-8.368 1.533-12.143zM264.23 334.601c-24.338 0-44.138 19.8-44.138 44.138 0 24.338 19.8 44.137 44.138 44.137s44.138-19.799 44.138-44.137-19.8-44.138-44.138-44.138zm0 70.965c-14.793 0-26.828-12.035-26.828-26.827 0-14.793 12.034-26.828 26.828-26.828 14.793 0 26.828 12.035 26.828 26.828 0 14.792-12.035 26.827-26.828 26.827zm42.855-210.376c-2.07-4.309-7.24-6.127-11.548-4.059l-14.972 7.185 9.972-28.868a8.654 8.654 0 0 0-12.239-10.47L240.6 178.98a8.656 8.656 0 0 0 8.115 15.291L267 184.569l-9.567 27.697a8.654 8.654 0 0 0 11.925 10.628l33.667-16.156a8.656 8.656 0 0 0 4.06-11.548z"/><path d="M380.815 102.362a8.683 8.683 0 0 0-1.138-1.206c-1.8-1.543-6.617-2.73-9.683-1.071l-53.526 28.401a8.655 8.655 0 0 0-3.588 11.703c2.239 4.22 7.479 5.831 11.703 3.588l34.113-18.102-16.596 48.048a8.655 8.655 0 0 0 12.013 10.586l47.836-23.629c15.379 29.058 23.552 61.609 23.552 95.32 0 112.538-91.556 204.094-204.094 204.094S17.31 368.539 17.31 256.001 108.867 51.905 221.405 51.905c25.945 0 51.223 4.801 75.125 14.268a8.65 8.65 0 0 0 11.233-4.859 8.653 8.653 0 0 0-4.859-11.233c-25.941-10.275-53.361-15.486-81.499-15.486C99.321 34.595 0 133.917 0 256.001c0 122.083 99.321 221.404 221.405 221.404 122.083 0 221.404-99.321 221.404-221.404 0-57.647-22.014-112.17-61.994-153.639zm-15.474 57.096l12.097-35.025a204.61 204.61 0 0 1 15.741 21.273l-27.838 13.752zm145.805-59.477c-2.069-4.31-7.241-6.124-11.548-4.059l-41.816 20.068 23.32-67.518a8.651 8.651 0 0 0-2.554-9.4 8.659 8.659 0 0 0-9.684-1.07l-67.758 35.953a8.655 8.655 0 0 0 8.115 15.291l48.347-25.652-22.916 66.347a8.654 8.654 0 0 0 11.925 10.628l60.513-29.039c4.306-2.07 6.124-7.24 4.056-11.549z"/><circle cx="329.178" cy="72.206" r="8.655"/></svg>