<svg xmlns="http://www.w3.org/2000/svg" viewBox="0 0 512 512"><path d="M482.717 146.85c0-42.809-34.833-77.636-77.647-77.636-24.125 0-46.612 11.106-61.282 29.974a213.539 213.539 0 0 0-58.064-16.462v-24.16h42.593V0H184.566v58.565h42.593v24.16A213.52 213.52 0 0 0 168.44 99.48c-14.662-19.069-37.177-30.267-61.521-30.267-42.809 0-77.636 34.827-77.636 77.636 0 24.347 11.195 46.861 30.263 61.519-12.428 27.705-18.731 57.274-18.731 88.004C40.815 415.27 137.545 512 256.442 512s215.627-96.73 215.627-215.627c0-30.91-6.38-60.652-18.962-88.518 18.656-14.671 29.61-36.996 29.61-61.005zM405.07 85.186c34.008 0 61.675 27.663 61.675 61.664 0 17.936-7.701 34.689-20.949 46.317-20.022-36.628-50.538-66.966-87.277-86.761a61.53 61.53 0 0 1 46.551-21.22zM45.255 146.85c0-34.001 27.663-61.664 61.664-61.664 18.247 0 35.199 7.923 46.842 21.547-36.652 19.903-67.06 50.31-86.96 86.96-13.623-11.641-21.546-28.593-21.546-46.843zm410.841 149.523c.001 110.09-89.564 199.655-199.654 199.655S56.787 406.463 56.787 296.373c0-30.585 6.73-59.922 20.003-87.199 19.504-40.114 52.338-72.948 92.455-92.455 20.977-10.206 43.421-16.584 66.709-18.957l7.177-.732V42.593h-42.593V15.972h111.807v26.621h-42.593v54.438l7.176.732c23.094 2.354 45.352 8.642 66.156 18.69l.003.002c40.218 19.399 73.175 52.179 92.801 92.3 13.409 27.409 20.208 56.889 20.208 87.618z"/><path d="M375.008 177.318c-31.619-31.376-73.726-48.655-118.566-48.655s-86.947 17.279-118.566 48.654c-31.69 31.448-49.144 73.415-49.144 118.172 0 92.964 75.234 168.594 167.71 168.594s167.71-75.63 167.71-168.594c0-44.757-17.454-86.725-49.144-118.171zM264.428 447.9v-29.956h-15.972V447.9c-77.341-4.054-139.538-66.627-143.545-144.424h34.4v-15.972h-34.396c1.935-37.453 17.459-72.301 44.212-98.848 26.723-26.516 61.741-41.901 99.329-43.813v28.192h15.972v-28.192c37.588 1.912 72.606 17.296 99.329 43.813 26.754 26.547 42.277 61.395 44.212 98.848h-34.396v15.972h34.4c-4.007 77.796-66.203 140.37-143.545 144.424z"/><path d="M264.428 292.182v-97.851h-15.972v104.466l68.89 68.89 11.295-11.293z"/></svg>