<?xml version="1.0" encoding="iso-8859-1"?>
<!-- Generator: Adobe Illustrator 19.0.0, SVG Export Plug-In . SVG Version: 6.00 Build 0)  -->
<svg version="1.1" id="Layer_1" xmlns="http://www.w3.org/2000/svg" xmlns:xlink="http://www.w3.org/1999/xlink" x="0px" y="0px"
	 viewBox="0 0 512 512" style="enable-background:new 0 0 512 512;" xml:space="preserve">
<g>
	<g>
		<path d="M423.608,69.426C378.838,24.656,319.313,0,256,0S133.162,24.656,88.392,69.426S18.966,173.72,18.966,237.034
			c0,63.211,24.562,122.47,69.246,167.257V512l62.613-62.613C183.43,465.55,219.663,474.068,256,474.068
			c63.314,0,122.838-24.656,167.608-69.426s69.426-104.295,69.426-167.608S468.378,114.196,423.608,69.426z M256,458.088
			c-36.226,0-70.876-8.589-102.985-25.528l-5.212-2.75l-43.612,43.612v-75.836l-2.412-2.352
			c-43.099-42.023-66.834-98.207-66.834-158.2C34.946,115.144,134.11,15.98,256,15.98s221.054,99.164,221.054,221.054
			S377.89,458.088,256,458.088z"/>
	</g>
</g>
<g>
	<g>
		<path d="M213.387,90.552c-19.477,0-38.434,3.791-56.345,11.27l-17.668,7.377l17.671,7.37
			c48.787,20.348,80.311,67.633,80.311,120.464s-31.524,100.117-80.311,120.464l-17.671,7.37l17.668,7.377
			c17.91,7.479,36.868,11.27,56.345,11.27c80.771,0,146.482-65.711,146.482-146.482S294.158,90.552,213.387,90.552z
			 M213.387,367.536c-11.063,0-21.935-1.372-32.498-4.093c44.566-26.033,72.447-73.768,72.447-126.409
			s-27.882-100.377-72.447-126.409c10.562-2.721,21.434-4.093,32.498-4.093c71.959,0,130.502,58.543,130.502,130.502
			S285.346,367.536,213.387,367.536z"/>
	</g>
</g>
<g>
	<g>
		<rect x="74.892" y="234.371" width="21.306" height="15.98"/>
	</g>
</g>
<g>
	<g>
		<rect x="149.465" y="181.105" width="21.306" height="15.98"/>
	</g>
</g>
<g>
	<g>
		<rect x="170.771" y="255.677" width="21.306" height="15.98"/>
	</g>
</g>
<g>
	<g>
		<rect x="96.199" y="330.25" width="21.306" height="15.98"/>
	</g>
</g>
<g>
	<g>
		<rect x="96.199" y="127.839" width="21.306" height="15.98"/>
	</g>
</g>
<g>
	<g>
		<rect x="224.037" y="42.613" width="21.306" height="15.98"/>
	</g>
</g>
<g>
	<g>
		<rect x="309.263" y="74.572" width="21.306" height="15.98"/>
	</g>
</g>
<g>
	<g>
		<rect x="426.448" y="191.758" width="21.306" height="15.98"/>
	</g>
</g>
<g>
	<g>
		<rect x="373.182" y="127.839" width="21.306" height="15.98"/>
	</g>
</g>
<g>
	<g>
		<rect x="351.876" y="340.903" width="21.306" height="15.98"/>
	</g>
</g>
<g>
	<g>
		<rect x="309.263" y="394.169" width="21.306" height="15.98"/>
	</g>
</g>
<g>
	<g>
		<rect x="245.344" y="415.475" width="21.306" height="15.98"/>
	</g>
</g>
<g>
	<g>
		<rect x="181.424" y="404.822" width="21.306" height="15.98"/>
	</g>
</g>
<g>
	<g>
		<rect x="405.142" y="298.29" width="21.306" height="15.98"/>
	</g>
</g>
<g>
	<g>
		<rect x="383.835" y="245.024" width="21.306" height="15.98"/>
	</g>
</g>
<g>
</g>
<g>
</g>
<g>
</g>
<g>
</g>
<g>
</g>
<g>
</g>
<g>
</g>
<g>
</g>
<g>
</g>
<g>
</g>
<g>
</g>
<g>
</g>
<g>
</g>
<g>
</g>
<g>
</g>
</svg>
