<?xml version="1.0" encoding="iso-8859-1"?>
<!-- Generator: Adobe Illustrator 19.0.0, SVG Export Plug-In . SVG Version: 6.00 Build 0)  -->
<svg version="1.1" id="Layer_1" xmlns="http://www.w3.org/2000/svg" xmlns:xlink="http://www.w3.org/1999/xlink" x="0px" y="0px"
	 viewBox="0 0 512 512" style="enable-background:new 0 0 512 512;" xml:space="preserve">
<g>
	<g>
		<path d="M482.717,146.85c0-42.809-34.833-77.636-77.647-77.636c-24.125,0-46.612,11.106-61.282,29.974
			c-18.483-8.207-37.956-13.734-58.064-16.462v-24.16h42.593V0H184.566v58.565h42.593v24.16
			c-20.342,2.759-40.033,8.384-58.719,16.755c-14.662-19.069-37.177-30.267-61.521-30.267c-42.809,0-77.636,34.827-77.636,77.636
			c0,24.347,11.195,46.861,30.263,61.519c-12.428,27.705-18.731,57.274-18.731,88.004C40.815,415.27,137.545,512,256.442,512
			s215.627-96.73,215.627-215.627c0-30.91-6.38-60.652-18.962-88.518C471.763,193.184,482.717,170.859,482.717,146.85z
			 M405.07,85.186c34.008,0,61.675,27.663,61.675,61.664c0,17.936-7.701,34.689-20.949,46.317
			c-20.022-36.628-50.538-66.966-87.277-86.761C370.16,92.997,387.041,85.186,405.07,85.186z M45.255,146.85
			c0-34.001,27.663-61.664,61.664-61.664c18.247,0,35.199,7.923,46.842,21.547c-36.652,19.903-67.06,50.31-86.96,86.96
			C53.178,182.052,45.255,165.1,45.255,146.85z M456.096,296.373c0.001,110.09-89.564,199.655-199.654,199.655
			S56.787,406.463,56.787,296.373c0-30.585,6.73-59.922,20.003-87.199c19.504-40.114,52.338-72.948,92.455-92.455
			c20.977-10.206,43.421-16.584,66.709-18.957l7.177-0.732V42.593h-42.593V15.972h111.807v26.621h-42.593v54.438l7.176,0.732
			c23.094,2.354,45.352,8.642,66.156,18.69l0.003,0.002c40.218,19.399,73.175,52.179,92.801,92.3
			C449.297,236.164,456.096,265.644,456.096,296.373z"/>
	</g>
</g>
<g>
	<g>
		<path d="M375.008,177.318c-31.619-31.376-73.726-48.655-118.566-48.655s-86.947,17.279-118.566,48.654
			c-31.69,31.448-49.144,73.415-49.144,118.172c0,92.964,75.234,168.594,167.71,168.594s167.71-75.63,167.71-168.594
			C424.152,250.732,406.698,208.764,375.008,177.318z M264.428,447.9v-29.956h-15.972V447.9
			c-77.341-4.054-139.538-66.627-143.545-144.424h34.4v-15.972h-34.396c1.935-37.453,17.459-72.301,44.212-98.848
			c26.723-26.516,61.741-41.901,99.329-43.813v28.192h15.972v-28.192c37.588,1.912,72.606,17.296,99.329,43.813
			c26.754,26.547,42.277,61.395,44.212,98.848h-34.396v15.972h34.4C403.966,381.272,341.77,443.846,264.428,447.9z"/>
	</g>
</g>
<g>
	<g>
		<polygon points="264.428,292.182 264.428,194.331 248.456,194.331 248.456,298.797 317.346,367.687 328.641,356.394 		"/>
	</g>
</g>
<g>
</g>
<g>
</g>
<g>
</g>
<g>
</g>
<g>
</g>
<g>
</g>
<g>
</g>
<g>
</g>
<g>
</g>
<g>
</g>
<g>
</g>
<g>
</g>
<g>
</g>
<g>
</g>
<g>
</g>
</svg>
